<svg enable-background="new 0 0 806.801 806.801" height="806.801" viewBox="0 0 806.801 806.801" width="806.801" xmlns="http://www.w3.org/2000/svg"><path d="m68.8 740.5c42.7 42.7 99.5 66.2 159.9 66.2s117.2-23.5 159.9-66.2l133-133c8.1-8.1 8.1-21.3 0-29.5l-83.2-83.199-73.4 73.399 23.101 23.101-74.401 74.399c-47 47-123.2 47-170.2 0l-2.5-2.5c-47-47-47-123.2 0-170.2l74.4-74.399 23.1 23.1 73.4-73.399-83.2-83.2c-8.1-8.1-21.3-8.1-29.5 0l-133 133c-42.7 42.699-66.2 99.499-66.2 159.898 0 60.4 23.5 117.2 66.2 159.9z"/><path d="m738 66.3c-42.699-42.7-99.5-66.2-159.9-66.2s-117.199 23.5-159.9 66.2l-135.7 135.8c-8.1 8.1-8.1 21.3 0 29.5l83.2 83.2 76.201-76.2-23.201-23.2 74.4-74.4c47-47 123.201-47 170.201 0l2.5 2.5c47 47 47 123.2 0 170.2l-74.4 74.4-23.1-23.1-76.201 76.2 83.201 83.2c8.1 8.1 21.299 8.1 29.5 0l135.799-135.8c42.701-42.7 66.201-99.5 66.201-159.9s-23.5-117.2-66.201-159.9z"/><path d="m562.5 244.3c-9.801-9.8-22.5-14.6-35.301-14.6-12.799 0-25.6 4.9-35.299 14.6l-22.201 22.1-76.2 76.2-53.699 53.7-73.4 73.4-22.1 22.101c-19.5 19.5-19.5 51.199 0 70.699 9.8 9.801 22.5 14.601 35.3 14.601s25.6-4.9 35.3-14.601l22.1-22.1 73.4-73.4 53.699-53.699 76.201-76.2 22.1-22.101c19.6-19.5 19.6-51.2.1-70.7z"/></svg>